<?xml version="1.0" encoding="UTF-8" standalone="no"?> <svg xmlns:dc="http://purl.org/dc/elements/1.1/" xmlns:cc="http://creativecommons.org/ns#" xmlns:rdf="http://www.w3.org/1999/02/22-rdf-syntax-ns#" xmlns:svg="http://www.w3.org/2000/svg" xmlns="http://www.w3.org/2000/svg" viewBox="0 0 289.34668 77.306664" height="77.306664" width="289.34668" xml:space="preserve" id="svg2" version="1.1"><metadata id="metadata8"></metadata><defs id="defs6"></defs><g transform="matrix(1.3333333,0,0,-1.3333333,0,77.306667)" id="g10"><g transform="scale(0.1)" id="g12"><path id="path14" style="fill:#1b3072;fill-opacity:1;fill-rule:nonzero;stroke:none" d="m 148.82,143.598 h 93.996 l -37.597,105.476 c -3.133,8.879 -6.27,17.754 -9.406,37.082 -3.129,-19.328 -6.262,-28.203 -9.391,-37.082 z M 0,7.82422 143.598,373.363 H 248.035 L 391.633,7.82422 H 292.422 L 271.531,65.2773 H 120.102 L 99.2109,7.82422 H 0"></path><path id="path16" style="fill:#1b3072;fill-opacity:1;fill-rule:nonzero;stroke:none" d="m 595.125,289.809 h -52.738 v -83.547 h 52.738 c 29.242,0 55.352,8.879 55.352,41.777 0,32.891 -26.11,41.77 -55.352,41.77 z m -4.695,83.554 c 90.332,0 159.261,-29.25 159.261,-125.324 0,-96.082 -68.929,-124.805 -159.261,-125.332 H 542.387 V 7.82422 H 445.781 V 373.363 H 590.43"></path><path id="path18" style="fill:#1b3072;fill-opacity:1;fill-rule:nonzero;stroke:none" d="M 796.984,7.82422 V 373.363 h 96.606 v -138.39 h 45.949 l 83.031,138.39 h 107.04 L 1014.74,195.297 1134.84,7.82422 H 1027.79 L 939.016,148.82 H 893.59 V 7.82422 h -96.606"></path><path id="path20" style="fill:#1b3072;fill-opacity:1;fill-rule:nonzero;stroke:none" d="m 1330.07,292.426 c -63.19,0 -96.61,-43.352 -96.61,-101.828 0,-58.485 33.42,-101.8363 96.61,-101.8363 63.19,0 96.6,43.3513 96.6,101.8363 0,58.476 -33.41,101.828 -96.6,101.828 z m 0,88.758 c 130.55,0 195.81,-88.758 195.81,-190.586 0,-101.8363 -65.26,-190.59409375 -195.81,-190.59409375 -130.54,0 -195.82,88.75779375 -195.82,190.59409375 0,101.828 65.28,190.586 195.82,190.586"></path><path id="path22" style="fill:#1b3072;fill-opacity:1;fill-rule:nonzero;stroke:none" d="M 1984.5,373.363 V 7.82422 h -96.61 V 202.082 L 1809.56,81.9766 h -55.35 L 1675.89,202.602 V 7.82422 h -96.61 V 373.363 h 91.39 l 111.23,-171.281 111.22,171.281 h 91.38"></path><path id="path24" style="fill:#ed153e;fill-opacity:1;fill-rule:nonzero;stroke:none" d="m 2170.11,495.59 c 0,-46.504 -37.69,-84.199 -84.21,-84.199 -46.5,0 -84.2,37.695 -84.2,84.199 0,46.512 37.7,84.207 84.2,84.207 46.52,0 84.21,-37.695 84.21,-84.207"></path></g></g></svg> 